<svg enable-background="new 0 0 512.092 512.092" height="512" viewBox="0 0 512.092 512.092" width="512" xmlns="http://www.w3.org/2000/svg"><g fill="#fff"><path d="m312.453 199.601c-6.066-6.102-12.792-11.511-20.053-16.128-19.232-12.315-41.59-18.859-64.427-18.859-31.697-.059-62.106 12.535-84.48 34.987l-108.544 108.629c-22.336 22.379-34.89 52.7-34.91 84.318-.042 65.98 53.41 119.501 119.39 119.543 31.648.11 62.029-12.424 84.395-34.816l89.6-89.6c1.628-1.614 2.537-3.816 2.524-6.108-.027-4.713-3.87-8.511-8.583-8.484h-3.413c-18.72.066-37.273-3.529-54.613-10.581-3.195-1.315-6.867-.573-9.301 1.877l-64.427 64.512c-20.006 20.006-52.442 20.006-72.448 0s-20.006-52.442 0-72.448l108.971-108.885c19.99-19.965 52.373-19.965 72.363 0 13.472 12.679 34.486 12.679 47.957 0 5.796-5.801 9.31-13.495 9.899-21.675.623-9.775-2.982-19.348-9.9-26.282z"/><path d="m477.061 34.993c-46.657-46.657-122.303-46.657-168.96 0l-89.515 89.429c-2.458 2.47-3.167 6.185-1.792 9.387 1.359 3.211 4.535 5.272 8.021 5.205h3.157c18.698-.034 37.221 3.589 54.528 10.667 3.195 1.315 6.867.573 9.301-1.877l64.256-64.171c20.006-20.006 52.442-20.006 72.448 0s20.006 52.442 0 72.448l-80.043 79.957-.683.768-27.989 27.819c-19.99 19.965-52.373 19.965-72.363 0-13.472-12.679-34.486-12.679-47.957 0-5.833 5.845-9.35 13.606-9.899 21.845-.624 9.775 2.981 19.348 9.899 26.283 9.877 9.919 21.433 18.008 34.133 23.893 1.792.853 3.584 1.536 5.376 2.304s3.669 1.365 5.461 2.048 3.669 1.28 5.461 1.792l5.035 1.365c3.413.853 6.827 1.536 10.325 2.133 4.214.626 8.458 1.025 12.715 1.195h5.973.512l5.12-.597c1.877-.085 3.84-.512 6.059-.512h2.901l5.888-.853 2.731-.512 4.949-1.024h.939c20.961-5.265 40.101-16.118 55.381-31.403l108.629-108.629c46.66-46.657 46.66-122.303.003-168.96z"/></g></svg>